<?xml version="1.0" encoding="UTF-8"?>
<svg width="256px" height="256px" viewBox="0 0 256 256" version="1.1" xmlns="http://www.w3.org/2000/svg" preserveAspectRatio="xMidYMid">
    <title>MongoDB</title>
    <g>
        <path fill="#4DB33D" d="M176.267 113.391C161.483 46.189 130.767 21.814 128 9.187c-1.467-5.495-3.3-9.187-3.3-9.187s-1.833 3.692-3.3 9.187c-2.767 12.627-33.483 37.002-48.267 104.204-12.8 58.136 5.5 107.745 22 124.245l.367.367-.183.183c2.567 3.667 5.317 6.417 7.883 8.617v-1.1l1.467.917s.183-.183.55-.55c3.117-2.2 7.333-6.233 11.183-12.267 3.117-4.95 5.867-11.733 7.883-20.533a75.726 75.726 0 0 0 5.867-12.083l-.367-.367c4.217-25.073 8.05-54.45 3.667-86.9l-.183-.55.183.367c.367 2.567 1.283 5.5 2.383 8.983 4.583 14.667 12.467 39.783 13.567 61.417l.183.183c.183 1.1.367 2.2.367 3.117 1.467 14.483-2.017 28.417-5.317 37.367l.367.367a66.229 66.229 0 0 1-3.667 8.433c0 .183-.183.367-.183.55 4.033-1.833 11-6.783 16.5-14.667 6.6-9.35 11.55-22 12.833-38.5l.367-.367c.183-5.133 0-10.633-.733-16.5zm-24.2 128.333c.183.183.367.367.55.55l-.55-.55z"/>
    </g>
</svg>
